Coordinates
version=1
nRows=14
nColumns=40
inDegrees=yes

Units are S.I. units (second, meters, Newtons, ...)
Angles are in degrees.

endheader
time	pelvis_tilt	pelvis_list	pelvis_rotation	pelvis_tx	pelvis_ty	pelvis_tz	hip_flexion_r	hip_adduction_r	hip_rotation_r	knee_angle_r	knee_angle_r_beta	ankle_angle_r	subtalar_angle_r	mtp_angle_r	hip_flexion_l	hip_adduction_l	hip_rotation_l	knee_angle_l	knee_angle_l_beta	ankle_angle_l	subtalar_angle_l	mtp_angle_l	lumbar_extension	lumbar_bending	lumbar_rotation	arm_flex_r	arm_add_r	arm_rot_r	elbow_flex_r	pro_sup_r	wrist_flex_r	wrist_dev_r	arm_flex_l	arm_add_l	arm_rot_l	elbow_flex_l	pro_sup_l	wrist_flex_l	wrist_dev_l
     56.73000000	     -1.93287344	     -4.03832049	      0.61523537	      0.97081503	      0.92651498	      0.52388324	     13.42448327	      5.01061762	     -8.41742294	     22.83718085	     22.83718085	     13.46442064	     -6.34528064	     -2.64261790	     25.49484838	    -11.87255954	      0.26545248	     62.14950434	     62.14950434	     16.53288006	    -19.52019278	     22.63974375	    -10.78648351	      7.24101616	      0.94059824	     10.58105827	    -15.51092459	    -13.17862771	     28.67086636	     46.22707348	      0.00000000	      0.00000000	     15.61316745	    -10.38569446	     -3.56591223	     41.50090923	     45.90953576	      0.00000000	      0.00000000
     56.74964286	     -1.78444615	     -3.92672741	      1.42877517	      0.96874871	      0.92425593	      0.52557260	     13.78638243	      4.93353969	     -8.66003714	     24.31832163	     24.31832163	     14.16736848	     -7.58680050	     -2.92332243	     27.06331563	    -11.72786129	      0.52425013	     61.00714934	     61.00714934	     16.64787319	    -19.53765783	     22.29091532	    -10.97189700	      6.75879800	      0.44158153	     13.18307041	    -14.96085692	    -13.26471894	     30.22714093	     46.18938987	      0.00000000	      0.00000000	     13.38405006	    -10.00761603	     -3.22921803	     39.17173555	     45.84639828	      0.00000000	      0.00000000
     56.76928571	     -1.60854417	     -3.90772265	      2.26091424	      0.96660378	      0.92206013	      0.52728890	     14.06460405	      5.01775439	     -8.73440204	     25.70688737	     25.70688737	     15.04903884	     -8.92855040	     -2.25018871	     28.52270077	    -11.62381753	      0.78003517	     59.58415823	     59.58415823	     16.70288904	    -19.54224939	     22.08204367	    -11.21809118	      6.38914820	      0.58337791	     15.07764385	    -14.78860518	    -12.94507612	     32.87589473	     46.07648676	      0.00000000	      0.00000000	     12.41685067	     -9.24098425	     -2.48025267	     34.10098296	     45.81487111	      0.00000000	      0.00000000
     56.78892857	     -1.44972634	     -3.78576203	      3.04890857	      0.96447460	      0.91991478	      0.52882282	     14.32580968	      4.94399431	     -8.95990201	     27.04711685	     27.04711685	     15.69914247	    -10.08258506	     -2.38130635	     29.78587267	    -11.36432951	      0.88601095	     57.81466401	     57.81466401	     16.71361592	    -19.54581529	     22.01728766	    -11.48312069	      5.91801030	      0.19539186	     17.65521592	    -14.34330688	    -12.87182342	     34.91660960	     46.00662589	      0.00000000	      0.00000000	     10.11989624	     -8.99296487	     -2.19310520	     32.09560749	     45.75228154	      0.00000000	      0.00000000
     56.80857143	     -1.31954921	     -3.79170215	      3.87021753	      0.96238321	      0.91806509	      0.53018150	     14.42616140	      5.04644918	     -9.16652974	     28.02430048	     28.02430048	     16.56590419	    -11.01094807	     -1.34158514	     30.92806652	    -11.13736367	      1.10332055	     55.77927500	     55.77927500	     16.48036568	    -19.52649234	     21.63573420	    -11.73114058	      5.61968326	      0.30796553	     19.17234774	    -14.48864989	    -11.77130705	     38.91299234	     45.79553103	      0.00000000	      0.00000000	      8.92615952	     -8.40126790	     -1.45315450	     27.82092262	     45.69641804	      0.00000000	      0.00000000
     56.82821429	     -1.25826949	     -3.64669690	      4.62214519	      0.96033506	      0.91642805	      0.53125550	     14.55868779	      4.91109774	     -9.49428893	     28.95076075	     28.95076075	     17.11113933	    -11.75451595	     -1.38891377	     31.90274973	    -10.70631647	      1.19486234	     53.51022017	     53.51022017	     16.21842300	    -19.49506213	     21.65001903	    -11.89025204	      5.15296003	      0.11543628	     21.59042643	    -14.22729560	    -11.67898466	     41.02881985	     45.72420373	      0.00000000	      0.00000000	      6.72252073	     -8.16350713	     -1.27183122	     26.24946064	     45.64307026	      0.00000000	      0.00000000
     56.84785714	     -1.22419620	     -3.62524655	      5.37177567	      0.95838964	      0.91531490	      0.53202926	     14.49498190	      4.90917865	     -9.90026613	     29.45902704	     29.45902704	     17.83238063	    -12.09720658	     -0.45692851	     32.66848606	    -10.32978126	      1.38532645	     50.94769390	     50.94769390	     15.40681443	    -19.45385809	     20.34130016	    -12.06242833	      4.88508185	      0.44161376	     22.75470340	    -14.70510878	    -10.60482212	     45.78340953	     45.50493794	      0.00000000	      0.00000000	      5.04988565	     -7.80705129	     -0.85333441	     24.21489256	     45.59716589	      0.00000000	      0.00000000
     56.86750000	     -1.28643397	     -3.48367235	      6.06807522	      0.95648898	      0.91470871	      0.53243625	     14.37187675	      4.75657104	    -10.29254579	     29.67082290	     29.67082290	     18.15725069	    -12.45283830	     -0.42719481	     33.29523028	     -9.72701313	      1.62881562	     48.24650669	     48.24650669	     14.93043582	    -19.36865762	     20.38913706	    -12.06502636	      4.49294132	      0.42852776	     25.05483190	    -14.63580142	    -10.63011024	     47.78186983	     45.44697150	      0.00000000	      0.00000000	      2.97712274	     -7.65399116	     -0.75223185	     23.18212357	     45.54900255	      0.00000000	      0.00000000
     56.88714286	     -1.41978579	     -3.46174391	      6.74116055	      0.95474626	      0.91447392	      0.53258984	     14.16386737	      4.68908758	    -10.83991779	     29.59572081	     29.59572081	     18.53642158	    -12.37254436	     -0.06556925	     33.77527102	     -9.21811277	      1.99335187	     45.36978701	     45.36978701	     13.68863613	    -19.26024597	     18.41755235	    -11.99852020	      4.26124923	      0.61633431	     26.37118374	    -14.99828176	    -10.14959656	     52.40141085	     45.27673014	      0.00000000	      0.00000000	      0.70774504	     -7.57454520	     -0.56039659	     23.13879599	     45.48409392	      0.00000000	      0.00000000
     56.90678571	     -1.53233157	     -3.28001517	      7.36236163	      0.95312227	      0.91507809	      0.53238227	     13.70226424	      4.49520900	    -11.25040523	     29.12923270	     29.12923270	     18.66535834	    -12.37905918	      0.04749302	     33.97470409	     -8.48201602	      2.46165828	     42.42938123	     42.42938123	     13.00111435	    -19.02283501	     18.31176074	    -11.90027222	      3.86552552	      0.74866399	     28.52908748	    -15.09939385	    -10.18658837	     54.57002776	     45.21547780	      0.00000000	      0.00000000	     -1.22020375	     -7.51316692	     -0.47289836	     22.56190743	     45.43395022	      0.00000000	      0.00000000
     56.92642857	     -1.77022388	     -3.20897789	      7.94802230	      0.95161655	      0.91572433	      0.53192052	     13.28102976	      4.34331277	    -11.87326310	     28.49407905	     28.49407905	     18.76128688	    -11.94609826	      0.04596798	     34.09330652	     -7.91029812	      2.91393366	     39.36401870	     39.36401870	     11.29877642	    -18.73789733	     15.02455101	    -11.77413267	      3.62651721	      1.19539675	     29.51269677	    -15.85467331	     -9.72530555	     60.01534622	     45.03315579	      0.00000000	      0.00000000	     -3.65627342	     -7.60064602	     -0.11677587	     24.04596963	     45.30948124	      0.00000000	      0.00000000
     56.94607143	     -2.01989221	     -3.12178306	      8.50242686	      0.95024972	      0.91683751	      0.53123062	     12.69086709	      4.21598142	    -12.43375794	     27.53200636	     27.53200636	     18.72865368	    -11.49978719	     -0.00827038	     34.10509133	     -7.31379179	      3.48454753	     36.47104905	     36.47104905	     10.34174904	    -18.15662755	     13.62962460	    -11.53067799	      3.37422759	      1.26759675	     31.40240589	    -16.04070697	     -9.64059192	     63.33045682	     44.94339287	      0.00000000	      0.00000000	     -5.75179594	     -7.66383926	      0.38751816	     24.39019610	     45.18025337	      0.00000000	      0.00000000
     56.96571429	     -2.26522962	     -3.00098607	      9.00703381	      0.94909236	      0.91821052	      0.53035078	     11.97408048	      4.07734128	    -12.96081098	     26.37432859	     26.37432859	     18.57233198	    -11.01942492	     -0.20009005	     33.90655756	     -6.78964734	      3.89903114	     33.58988898	     33.58988898	      9.32860174	    -17.26850644	     11.63064529	    -11.29838046	      3.07527866	      1.65489178	     32.91238490	    -16.67131664	     -9.41495390	     67.13845962	     44.84106218	      0.00000000	      0.00000000	     -7.91684812	     -7.87303251	      1.09199324	     25.72064227	     45.01581135	      0.00000000	      0.00000000
     56.98535714	     -2.49036525	     -2.88963886	      9.45564813	      0.94803729	      0.91977971	      0.52937035	     11.15923044	      4.00742539	    -13.36281856	     25.06622785	     25.06622785	     18.41378149	    -10.60085725	     -0.05861004	     33.62695272	     -6.35641483	      4.20466803	     31.01023194	     31.01023194	      9.19998102	    -15.92553979	     11.38122427	    -11.04099624	      2.78260369	      1.96551665	     35.09087822	    -17.00767911	     -9.46121860	     69.10327555	     44.79445891	      0.00000000	      0.00000000	     -9.50585285	     -7.90965911	      1.33350488	     25.73191730	     44.94865122	      0.00000000	      0.00000000
